<svg id="Capa_1" data-name="Capa 1" xmlns="http://www.w3.org/2000/svg" viewBox="0 0 1280 1024"><defs><style>.cls-1{fill:#6d4f63;}</style></defs><path class="cls-1" d="M527.9,816.54c85.22,0,170.63,6.53,255.81,2.31,39.67-2,79.55-6.56,118.19-15.92a430.83,430.83,0,0,0,53.48-16.62c18.57-7.14,37.53-14.88,54.65-25.15a191.24,191.24,0,0,0,65.46-65.57c16-26.82,24.57-56.6,28.54-87.37,7.31-56.71-5.61-117.23-34-166.72a215.64,215.64,0,0,0-58.1-65.81c-16.61-12.41-36.68-22.51-57.15-26.45-32.28-6.2-65.89-7.28-98.64-8.91-49.5-2.47-99.06-3.82-148.6-4.92q-84.81-1.89-169.63-2.66-77.16-.81-154.32-1.09-50.68-.21-101.36-.23H269.8c-15.69,0-30.72,13.8-30,30s13.18,30,30,30q40.71,0,81.42.11,70.83.21,141.68.79,83.39.69,166.76,2.12c52.33.94,104.66,2.14,157,4.15,36.9,1.42,74,2.77,110.7,6.82q4.36.48,8.72,1.05l-8-1.07a122.67,122.67,0,0,1,31.82,8.34l-7.17-3a136.54,136.54,0,0,1,21.63,11.65q2.53,1.68,5,3.46l2.27,1.67c3.12,2.27-6.69-5.33-2.73-2.09,3.31,2.71,6.56,5.46,9.68,8.39a190,190,0,0,1,17.31,18.9c3,3.76-3.4-4.53-2.28-3,.68.93,1.39,1.84,2.07,2.77,1.27,1.73,2.51,3.49,3.73,5.26q3.81,5.58,7.26,11.4a230.77,230.77,0,0,1,13.77,27.34l-3-7.17a253.77,253.77,0,0,1,17.51,64.51l-1.07-8a240.66,240.66,0,0,1,.11,62.88l1.07-8a200.63,200.63,0,0,1-13.71,50.71l3-7.16a173.25,173.25,0,0,1-15,27.94q-2.29,3.42-4.75,6.72c-3.87,5.2,4.46-5.57,1.54-2-.87,1.07-1.74,2.15-2.62,3.21q-5.06,6-10.67,11.47c-3.82,3.72-7.84,7.19-12,10.53-3.65,2.94,7.13-5.36,1.78-1.41-1.17.87-2.35,1.71-3.55,2.55q-3.62,2.52-7.38,4.85c-11.86,7.34-24.7,13.1-37.53,18.52l7.17-3c-37.68,15.76-77.35,25.66-117.78,31.12l8-1.07C762.83,764.14,683,759.5,604,757.59c-25.36-.61-50.71-1-76.07-1.05-15.7,0-30.73,13.8-30,30s13.18,30,30,30Z"/><path class="cls-1" d="M415.81,530.38c-52.26-51.81-104.33-103.86-155.3-156.95-11.71-12.19-23.37-24.43-34.7-37v42.43c51.87-53,102.9-106.78,154-160.47q18-18.9,36-37.83c10.81-11.38,12.15-31.27,0-42.42-11.72-10.76-30.88-12.16-42.42,0Q296.55,219.1,219.2,299.53q-17.85,18.53-35.81,36.93c-11.76,12-11,30.27,0,42.43C232.47,433.24,285,484.63,336.8,536.38q18.26,18.25,36.59,36.43c11.15,11.06,31.43,12,42.42,0s11.91-30.62,0-42.43Z"/></svg>