<svg id="Capa_1" data-name="Capa 1" xmlns="http://www.w3.org/2000/svg" viewBox="0 0 1280 1024"><defs><style>.cls-1{fill:#f4acb7;}.cls-2{fill:#fff;}</style></defs><circle class="cls-1" cx="640" cy="501" r="466"/><path class="cls-2" d="M478.43,296.85l249,202.85L797,556.4v-99c-82,69.31-166.81,135.06-250,202.81Q512.43,688.29,478.43,717A52.53,52.53,0,0,0,464,739.47a52.82,52.82,0,0,0-6,27c0,17.17,7.63,37.68,20.51,49.5,13.34,12.25,30.85,21.34,49.49,20.5l18.61-2.5a69.81,69.81,0,0,0,30.89-18c82-69.31,166.81-135.06,250-202.81Q862,585.06,896,556.4a52.5,52.5,0,0,0,14.48-22.53,52.77,52.77,0,0,0,6-27c-.79-17.45-6.37-38-20.51-49.5L647,254.55l-69.58-56.69a52.5,52.5,0,0,0-22.53-14.48,52.77,52.77,0,0,0-27-6c-17.16,0-37.67,7.63-49.49,20.51-12.25,13.34-21.34,30.85-20.51,49.49.79,17.45,6.37,38,20.51,49.5Z"/></svg>