<svg id="Capa_1" data-name="Capa 1" xmlns="http://www.w3.org/2000/svg" viewBox="0 0 1280 1024"><defs><style>.cls-1{fill:#f4acb7;}.cls-2{fill:#fff;}</style></defs><circle class="cls-1" cx="635" cy="506" r="466"/><path class="cls-2" d="M697.58,202.86l-249,202.84-69.58,56.7a52.5,52.5,0,0,0-14.48,22.53,52.77,52.77,0,0,0-6,27c.79,17.65,6.48,37.63,20.51,49.5,81.95,69.3,166.81,135.05,250,202.8q34.49,28.08,68.5,56.74a52.39,52.39,0,0,0,22.53,14.47,52.57,52.57,0,0,0,27,6c17.16,0,37.67-7.62,49.49-20.5,12.25-13.34,21.34-30.85,20.51-49.5-.79-17.65-6.48-37.63-20.51-49.49-82-69.31-166.81-135.06-250-202.81Q512.05,491.06,478,462.4v99L727,358.55l69.58-56.7a52.5,52.5,0,0,0,14.48-22.53,52.77,52.77,0,0,0,6-27c0-17.16-7.63-37.67-20.51-49.49-13.34-12.25-30.85-21.34-49.49-20.51l-18.61,2.5a69.92,69.92,0,0,0-30.89,18Z"/></svg>