<svg id="Capa_1" data-name="Capa 1" xmlns="http://www.w3.org/2000/svg" viewBox="0 0 104 26"><path d="M56.3,8.58a3.52,3.52,0,0,1,2-.32,2.34,2.34,0,0,1,1.75,1c.14.21.29.41.42.62A1.35,1.35,0,0,0,63,9.31,2.37,2.37,0,0,0,62.51,8a4.06,4.06,0,0,0-2.17-1.65,7.35,7.35,0,0,0-4.92,0,5.15,5.15,0,0,0-3.37,3.41,7.71,7.71,0,0,0-.16,4.31,5.32,5.32,0,0,0,3.86,4.11,8,8,0,0,0,5-.17,8.42,8.42,0,0,0,1.81-.88,1.53,1.53,0,0,0,.75-1.3q0-1.38,0-2.76a1.26,1.26,0,0,0-1.15-1.33,2.84,2.84,0,0,0-.51,0H58.7A1.13,1.13,0,0,0,57.51,13a1,1,0,0,0,1,.87c.21,0,.43,0,.64,0h1.44a.12.12,0,0,1,.12.12c0,.46,0,.9,0,1.33a.18.18,0,0,1-.09.13,5.72,5.72,0,0,1-2.92.69,2.94,2.94,0,0,1-2.8-2,5.89,5.89,0,0,1,0-3.91A2.92,2.92,0,0,1,56.3,8.58Z"/><path d="M46.62,16.06a2.93,2.93,0,0,1-1.68.24,1.87,1.87,0,0,1-1.56-1.1c-.1-.2-.18-.4-.28-.6a5.45,5.45,0,0,0-.29-.53,1.16,1.16,0,0,0-1.2-.47,1.22,1.22,0,0,0-1,.85,1.69,1.69,0,0,0,0,.92,3.88,3.88,0,0,0,1.94,2.51,5.72,5.72,0,0,0,2.87.63,7.1,7.1,0,0,0,1.78-.2,4.47,4.47,0,0,0,2.13-1.19,3.69,3.69,0,0,0,1-3.11,3,3,0,0,0-1.6-2.34,6.6,6.6,0,0,0-1.19-.52c-.88-.27-1.78-.5-2.67-.74a2.88,2.88,0,0,1-1-.45.82.82,0,0,1,0-1.39,2.08,2.08,0,0,1,.62-.34,3,3,0,0,1,1.29-.1A1.62,1.62,0,0,1,47,9c.08.12.14.25.22.38s.21.36.33.54a1.21,1.21,0,0,0,1.67.23,1.41,1.41,0,0,0,.52-1.47,3,3,0,0,0-1.43-2A4.78,4.78,0,0,0,46.05,6a6.94,6.94,0,0,0-2.86.31A3.25,3.25,0,0,0,40.8,9.08a3,3,0,0,0,1,2.75,4.74,4.74,0,0,0,1.79.94c.76.23,1.52.41,2.28.62a3.5,3.5,0,0,1,1.16.49,1.17,1.17,0,0,1,.18,1.75A2.29,2.29,0,0,1,46.62,16.06Z"/><path d="M35.62,16a2.93,2.93,0,0,1-1.88.34,1.87,1.87,0,0,1-1.55-1.08c-.09-.19-.17-.39-.27-.58a3.76,3.76,0,0,0-.3-.56,1.26,1.26,0,0,0-2,0,1.5,1.5,0,0,0-.17,1.25,3.83,3.83,0,0,0,1.95,2.52,5.67,5.67,0,0,0,2.87.63,7.15,7.15,0,0,0,1.78-.2,4.4,4.4,0,0,0,2.13-1.2A3.67,3.67,0,0,0,39.08,14a3,3,0,0,0-1.63-2.38,7.17,7.17,0,0,0-1.14-.5c-.89-.27-1.8-.5-2.69-.75a3.07,3.07,0,0,1-.78-.3c-.83-.48-.82-1.25,0-1.71a2.48,2.48,0,0,1,.37-.17,3.1,3.1,0,0,1,1.25-.1A1.65,1.65,0,0,1,35.82,9c.08.13.15.27.22.39s.22.37.34.55a1.21,1.21,0,0,0,1.69.23,1.43,1.43,0,0,0,.5-1.47,3,3,0,0,0-1.44-2A4.64,4.64,0,0,0,34.86,6a7,7,0,0,0-2.85.3A3.26,3.26,0,0,0,29.6,9.08a3,3,0,0,0,1,2.75,4.74,4.74,0,0,0,1.79.94c.75.23,1.51.41,2.26.62a3.57,3.57,0,0,1,1.13.45,1.12,1.12,0,0,1,.52.88A1.25,1.25,0,0,1,35.62,16Z"/><path d="M68.16,7.62a2.07,2.07,0,0,0,0-.35A1.46,1.46,0,0,0,66.28,6a1.18,1.18,0,0,0-.82.83,2.48,2.48,0,0,0-.12.77c0,3,0,5.93,0,8.9a3.38,3.38,0,0,0,0,.55,1.22,1.22,0,0,0,.72,1.06,2.08,2.08,0,0,0,.89.17h5.78a2.09,2.09,0,0,0,.43,0,1.14,1.14,0,0,0,1-1A1.16,1.16,0,0,0,73.34,16a2.23,2.23,0,0,0-.63-.09H68.29a.13.13,0,0,1-.13-.12V7.62Z"/><path d="M10.18,20.41,1.34,8.57l.81.12,3.16.47c.43.07.43.06.59.46l4.26,10.66s0,.08,0,.11ZM6.53,9.28H16.6c-1.67,4.2-3.34,8.38-5,12.61Zm0-.72L7,7.35c.11-.31.23-.63.33-.94a.18.18,0,0,1,.19-.13h8.17c.08,0,.14,0,.17.1l.78,2.14v0ZM13,20.4h0l.76-1.92,3.63-9.09a.24.24,0,0,1,.2-.17l4.19-.63h.07ZM20.09,5.34C20.7,6.15,21.3,7,21.9,7.78c0,0,0,0,0,.06L21.27,8l-2.93.45-.87.13a.18.18,0,0,1-.14-.08c-.28-.75-.55-1.5-.83-2.27l1.56-.41,1.86-.48A.21.21,0,0,1,20.09,5.34ZM4.14,4.73l3-1.32a.44.44,0,0,1,.16,0h8.57a.9.9,0,0,1,.32.09L19,4.71l.17.08-2.75.7a3.56,3.56,0,0,1-.79.1H7.92A5.62,5.62,0,0,1,6.4,5.4c-.77-.22-1.55-.4-2.34-.61C4.09,4.77,4.11,4.74,4.14,4.73Zm-2.88,3L3,5.36a.17.17,0,0,1,.2-.08l3.3.87.11,0C6.36,7,6.09,7.7,5.81,8.45c0,0-.09.08-.14.08L1.21,7.84A.26.26,0,0,1,1.26,7.75Z"/><path d="M89.89,16.18a6.49,6.49,0,0,0,.48,1.51,1.66,1.66,0,0,0,2.47.48,2.09,2.09,0,0,0,.64-1.1q.76-2.75,1.51-5.49c.14-.48.27-1,.41-1.47a1.22,1.22,0,0,0,0,.17c.32,1.2.64,2.41,1,3.61s.63,2.33,1,3.49a1.49,1.49,0,0,0,1.45,1.13,1.51,1.51,0,0,0,1.31-.48,2.15,2.15,0,0,0,.48-1l1-3.81c.43-1.74.86-3.47,1.28-5.21A2.37,2.37,0,0,0,103,6.94a1.3,1.3,0,0,0-1.14-1,1.26,1.26,0,0,0-1.42.89,2.13,2.13,0,0,0-.07.27c-.37,1.58-.72,3.17-1.08,4.75-.14.59-.27,1.17-.4,1.79,0-.08,0-.13-.06-.17-.27-1-.53-2-.8-3s-.61-2.2-.93-3.3A1.75,1.75,0,0,0,93.79,7a4.33,4.33,0,0,0-.27.79Q92.74,10.64,92,13.5a1.14,1.14,0,0,1-.06.15L90.71,8.23a8.84,8.84,0,0,0-.46-1.62A1.06,1.06,0,0,0,89.5,6,2.32,2.32,0,0,0,89,6a1.26,1.26,0,0,0-1.25,1.16,2.72,2.72,0,0,0,0,.7c.22.93.45,1.86.68,2.79Q89.2,13.41,89.89,16.18Z"/><path d="M78.8,18.19a7.09,7.09,0,0,0,3.71.17,5.12,5.12,0,0,0,3.87-3.13,7.55,7.55,0,0,0,.55-3A8,8,0,0,0,86.66,10a5.12,5.12,0,0,0-3.55-3.76,7.24,7.24,0,0,0-3.43-.22A5.1,5.1,0,0,0,75.5,9.42a7.86,7.86,0,0,0,0,5.59A5,5,0,0,0,78.8,18.19Zm-.91-6.58A4.77,4.77,0,0,1,78.28,10,2.78,2.78,0,0,1,81.07,8.3a2.89,2.89,0,0,1,2.76,2.18A5.36,5.36,0,0,1,84.07,12a5.42,5.42,0,0,1-.52,2.61,2.92,2.92,0,0,1-5.29-.27A5.7,5.7,0,0,1,77.89,11.61Z"/></svg>