<svg id="Capa_1" data-name="Capa 1" xmlns="http://www.w3.org/2000/svg" viewBox="0 0 106.47 62.55"><defs><style>.cls-1{fill:#cc5091;stroke:#cc5091;stroke-width:0.75px;}.cls-1,.cls-2{stroke-miterlimit:10;}.cls-2{fill:#ef9cbd;stroke:#fff;stroke-width:0.5px;}</style></defs><path class="cls-1" d="M4.49,30.71c1.1,0,1.7,1,1.7,2.77v3.29c0,4.82-1.78,8.28-5.06,8.28S-4,41.14-4,35.77V29.12c0-5.37,2-9.28,5.17-9.28,2.94,0,5,3,5.06,7.48,0,1.56-.83,2.42-1.59,2.42S3,28.53,2.86,27c-.15-1.17-.93-1.9-1.73-1.87-1.08,0-1.78,1.42-1.78,3.43v7.83c0,2,.7,3.39,1.78,3.43S2.86,39,2.86,37.22V35.63H2.5c-1.1,0-1.69-.86-1.69-2.46s.59-2.46,1.69-2.46Z"/><path class="cls-1" d="M7.29,41.83l2.92-18.91c.27-1.8,1.27-3.08,2.43-3.08s2.16,1.28,2.43,3.08L18,41.83c.3,1.87-.55,3.22-1.52,3.22-.74,0-1.36-.83-1.52-2l-.41-2.73h-3.8l-.41,2.73c-.17,1.15-.78,2-1.52,2C7.79,45.05,7,43.63,7.29,41.83Zm4.21-6.75h2.28l-1.06-7.31h-.17Z"/><path class="cls-1" d="M19.66,42.28v-19c0-1.87.64-2.9,1.78-2.9h2.9c3.3,0,5.21,3,5.21,8.1,0,3-.79,5.47-2.2,6.72l1.48,6.26c.4,1.73-.36,3.64-1.53,3.64-.67,0-1.27-.73-1.5-1.7l-1.56-6.82H23.05v5.75c0,1.52-.76,2.77-1.69,2.77S19.66,43.8,19.66,42.28Zm3.39-11h1.21c1.29,0,1.9-.8,1.9-2.84s-.61-2.84-1.9-2.84H23.05Z"/><path class="cls-1" d="M35.15,41.83l2.92-18.91c.28-1.8,1.27-3.08,2.44-3.08s2.16,1.28,2.43,3.08l2.92,18.91c.3,1.87-.55,3.22-1.52,3.22-.74,0-1.36-.83-1.53-2l-.4-2.73H38.6l-.4,2.73c-.17,1.15-.78,2-1.52,2C35.66,45.05,34.88,43.63,35.15,41.83Zm4.22-6.75h2.28l-1.06-7.31h-.17Z"/><path class="cls-1" d="M54.35,42.28l0-16.93H52.25c-.84,0-1.52-1.11-1.52-2.53s.68-2.49,1.52-2.49h7.58c.84,0,1.52,1.1,1.52,2.52s-.68,2.5-1.52,2.5H57.75l0,16.93c0,1.52-.76,2.77-1.69,2.77S54.35,43.8,54.35,42.28Z"/><path class="cls-1" d="M61.75,36.36V28.53c0-4.78,2-8.69,5.17-8.69s5,3.53,5,8.69v7.83c0,5.16-1.77,8.69-5,8.69S61.75,41.14,61.75,36.36Zm6.9.52V28c0-1.73-.74-2.94-1.73-2.91S65.14,26.52,65.14,28v8.87c0,1.49.7,2.87,1.78,2.91S68.65,38.61,68.65,36.88Z"/><path class="cls-1" d="M75.66,44.56c-1.15,0-1.78-1-1.78-2.9V23.23c0-1.87.63-2.9,1.78-2.9h3c4.1,0,5.46,4.53,5.46,12.11s-1.36,12.12-5.46,12.12Zm1.6-5.26h1.27c2,0,2.18-2.6,2.18-6.86s-.19-6.85-2.18-6.85H77.26Z"/><path class="cls-1" d="M85.54,36.36V28.53c0-4.78,1.95-8.69,5.16-8.69s5.06,3.53,5.06,8.69v7.83c0,5.16-1.78,8.69-5.06,8.69S85.54,41.14,85.54,36.36Zm6.9.52V28c0-1.73-.74-2.94-1.74-2.91S88.92,26.52,88.92,28v8.87c0,1.49.7,2.87,1.78,2.91S92.44,38.61,92.44,36.88Z"/><path class="cls-1" d="M101.79,35.77V29.12c0-5.37,1.95-9.28,5.16-9.28S112,23.37,112,28.19c0,1.1-.57,2.25-1.65,2.25s-1.67-1.21-1.67-2.77c0-1.74-.74-2.6-1.74-2.57s-1.77,1.42-1.77,3.43v7.83c0,2,.69,3.39,1.77,3.43s1.74-.84,1.74-2.57c0-1.21.59-2.77,1.67-2.77S112,35.6,112,36.77c0,4.82-1.78,8.28-5.06,8.28S101.79,41.14,101.79,35.77Z"/><path class="cls-2" d="M3.7,29.63c1.1,0,1.69,1,1.69,2.77v3.29C5.39,40.5,3.61,44,.33,44s-5.16-3.92-5.16-9.28V28c0-5.37,2-9.28,5.16-9.28,2.94,0,5,3,5.06,7.48,0,1.56-.82,2.42-1.59,2.42s-1.58-1.21-1.73-2.77A1.9,1.9,0,0,0,.33,24c-1.08,0-1.77,1.42-1.77,3.43v7.83c0,2,.69,3.39,1.77,3.42s1.74-.83,1.74-2.56V34.55H1.71C.61,34.55,0,33.68,0,32.09s.59-2.46,1.69-2.46Z"/><path class="cls-2" d="M6.49,40.75,9.41,21.84c.28-1.8,1.27-3.08,2.43-3.08S14,20,14.28,21.84L17.2,40.75c.29,1.87-.55,3.22-1.53,3.22-.74,0-1.35-.83-1.52-2l-.4-2.73H9.94L9.54,42c-.17,1.15-.79,2-1.53,2C7,44,6.22,42.55,6.49,40.75ZM10.7,34H13l-1.06-7.31h-.17Z"/><path class="cls-2" d="M18.87,41.2V22.15c0-1.87.63-2.9,1.78-2.9h2.9c3.3,0,5.2,3,5.2,8.1,0,3-.78,5.47-2.2,6.72L28,40.33c.4,1.73-.36,3.64-1.52,3.64-.68,0-1.27-.73-1.5-1.7l-1.57-6.82H22.26V41.2c0,1.52-.77,2.77-1.7,2.77S18.87,42.72,18.87,41.2Zm3.39-11h1.2c1.29,0,1.91-.8,1.91-2.84s-.62-2.84-1.91-2.84h-1.2Z"/><path class="cls-2" d="M34.36,40.75l2.92-18.91c.27-1.8,1.27-3.08,2.43-3.08s2.16,1.28,2.44,3.08l2.92,18.91c.29,1.87-.55,3.22-1.53,3.22-.74,0-1.35-.83-1.52-2l-.4-2.73H37.81L37.41,42c-.17,1.15-.79,2-1.53,2C34.87,44,34.08,42.55,34.36,40.75ZM38.57,34h2.29L39.8,26.69h-.17Z"/><path class="cls-2" d="M53.55,41.2l0-16.93H51.46c-.85,0-1.53-1.11-1.53-2.53s.68-2.49,1.53-2.49H59c.85,0,1.53,1.1,1.53,2.52s-.68,2.5-1.53,2.5H57l0,16.93c0,1.52-.76,2.77-1.7,2.77S53.55,42.72,53.55,41.2Z"/><path class="cls-2" d="M61,35.28V27.45c0-4.78,1.95-8.69,5.16-8.69s5.06,3.53,5.06,8.69v7.83c0,5.16-1.78,8.69-5.06,8.69S61,40.05,61,35.28Zm6.9.52V26.93c0-1.73-.74-2.94-1.74-2.91s-1.78,1.42-1.78,2.91V35.8c0,1.48.7,2.87,1.78,2.9S67.86,37.53,67.86,35.8Z"/><path class="cls-2" d="M74.86,43.48c-1.14,0-1.78-1-1.78-2.91V22.15c0-1.87.64-2.9,1.78-2.9h3c4.11,0,5.46,4.53,5.46,12.11S82,43.48,77.84,43.48Zm1.61-5.26h1.27c2,0,2.18-2.6,2.18-6.86s-.19-6.85-2.18-6.85H76.47Z"/><path class="cls-2" d="M84.74,35.28V27.45c0-4.78,2-8.69,5.17-8.69s5,3.53,5,8.69v7.83c0,5.16-1.77,8.69-5,8.69S84.74,40.05,84.74,35.28Zm6.9.52V26.93c0-1.73-.74-2.94-1.73-2.91s-1.78,1.42-1.78,2.91V35.8c0,1.48.7,2.87,1.78,2.9S91.64,37.53,91.64,35.8Z"/><path class="cls-2" d="M101,34.69V28c0-5.37,2-9.28,5.17-9.28s5.06,3.53,5.06,8.34c0,1.11-.58,2.26-1.65,2.26s-1.68-1.22-1.68-2.77c0-1.74-.74-2.6-1.73-2.57s-1.78,1.42-1.78,3.43v7.83c0,2,.7,3.39,1.78,3.42s1.73-.83,1.73-2.56c0-1.21.6-2.77,1.68-2.77s1.65,1.14,1.65,2.32c0,4.81-1.78,8.28-5.06,8.28S101,40.05,101,34.69Z"/></svg>