<svg id="Capa_1" data-name="Capa 1" xmlns="http://www.w3.org/2000/svg" viewBox="0 0 106.47 62.55"><defs><style>.cls-1{fill:#cc5091;stroke:#cc5091;stroke-width:0.75px;}.cls-1,.cls-2{stroke-miterlimit:10;}.cls-2{fill:#ef9cbd;stroke:#fff;stroke-width:0.5px;}</style></defs><path class="cls-1" d="M-9.27,42.28v-19c0-1.87.63-2.9,1.77-2.9h2.9c3.3,0,5.21,3,5.21,8.1,0,3-.79,5.47-2.2,6.72l1.48,6.26c.4,1.73-.36,3.64-1.52,3.64-.68,0-1.27-.73-1.51-1.7L-4.7,36.53H-5.89v5.75c0,1.52-.76,2.77-1.69,2.77S-9.27,43.8-9.27,42.28Zm3.38-11h1.21c1.29,0,1.9-.8,1.9-2.84s-.61-2.84-1.9-2.84H-5.89Z"/><path class="cls-1" d="M2.32,42.28V22.61c0-1.52.76-2.77,1.69-2.77s1.7,1.25,1.7,2.77v9.77L8.88,21.3c.26-.87.78-1.46,1.4-1.46.87,0,1.54,1.14,1.54,2.53a3.57,3.57,0,0,1-.12,1L9,32.83l2.66,8.69a4,4,0,0,1,.15,1.07c0,1.39-.68,2.49-1.52,2.49-.62,0-1.12-.55-1.38-1.38L5.71,33.24v9c0,1.52-.76,2.77-1.7,2.77S2.32,43.8,2.32,42.28Z"/><path class="cls-1" d="M15.36,44.56c-1.15,0-1.78-1-1.78-2.9V23.23c0-1.87.63-2.9,1.78-2.9h6.05c.8,0,1.48,1.28,1.48,2.63s-.68,2.63-1.48,2.63H17v4.19h3.34c.85,0,1.52,1.21,1.52,2.6S21.16,35,20.31,35H17V39.3h4.44c.8,0,1.48,1.28,1.48,2.63s-.68,2.63-1.48,2.63Z"/><path class="cls-1" d="M24.22,42.28V22.65c0-1.53.76-2.81,1.72-2.81.67,0,1.25.66,1.52,1.56l3.41,11.39h0V22.61c0-1.52.76-2.77,1.69-2.77s1.69,1.25,1.69,2.77V42.28c0,1.52-.76,2.77-1.69,2.77-.65,0-1.23-.59-1.5-1.53L27.65,31.93h0V42.28c0,1.52-.76,2.77-1.69,2.77S24.22,43.8,24.22,42.28Z"/><path class="cls-1" d="M41.26,42.28v-19c0-1.87.63-2.9,1.77-2.9h2.86c3.34,0,5.23,3,5.23,8.27s-1.89,8.28-5.23,8.28H44.64v5.4c0,1.52-.76,2.77-1.69,2.77S41.26,43.8,41.26,42.28Zm3.38-10.67H45.7c1.31,0,2-1.21,2-3s-.72-3-2-3H44.64Z"/><path class="cls-1" d="M52.35,36.36V28.53c0-4.78,1.94-8.69,5.16-8.69s5.06,3.53,5.06,8.69v7.83c0,5.16-1.78,8.69-5.06,8.69S52.35,41.14,52.35,36.36Zm6.89.52V28c0-1.73-.74-2.94-1.73-2.91S55.73,26.52,55.73,28v8.87c0,1.49.7,2.87,1.78,2.91S59.24,38.61,59.24,36.88Z"/><path class="cls-1" d="M64.47,42.28v-19c0-1.87.64-2.9,1.78-2.9h2.9c3.3,0,5.2,3,5.2,8.1,0,3-.78,5.47-2.2,6.72l1.48,6.26c.41,1.73-.36,3.64-1.52,3.64-.68,0-1.27-.73-1.5-1.7L69,36.53H67.86v5.75c0,1.52-.77,2.77-1.7,2.77S64.47,43.8,64.47,42.28Zm3.39-11h1.2c1.29,0,1.91-.8,1.91-2.84s-.62-2.84-1.91-2.84h-1.2Z"/><path class="cls-1" d="M80.66,42.28v-19c0-1.87.63-2.9,1.78-2.9h2.85c3.35,0,5.23,3,5.23,8.27s-1.88,8.28-5.23,8.28H84v5.4c0,1.52-.76,2.77-1.69,2.77S80.66,43.8,80.66,42.28ZM84,31.61H85.1c1.31,0,2-1.21,2-3s-.72-3-2-3H84Z"/><path class="cls-1" d="M90.84,41.83l2.92-18.91c.27-1.8,1.27-3.08,2.43-3.08s2.16,1.28,2.43,3.08l2.92,18.91c.3,1.87-.55,3.22-1.52,3.22-.74,0-1.35-.83-1.52-2l-.41-2.73h-3.8l-.41,2.73c-.17,1.15-.78,2-1.52,2C91.34,45.05,90.56,43.63,90.84,41.83Zm4.21-6.75h2.28l-1.06-7.31h-.16Z"/><path class="cls-1" d="M111,30.71c1.1,0,1.69,1,1.69,2.77v3.29c0,4.82-1.77,8.28-5.05,8.28s-5.17-3.91-5.17-9.28V29.12c0-5.37,1.95-9.28,5.17-9.28,2.94,0,5,3,5.05,7.48,0,1.56-.82,2.42-1.58,2.42s-1.59-1.21-1.74-2.77c-.15-1.17-.93-1.9-1.73-1.87-1.08,0-1.78,1.42-1.78,3.43v7.83c0,2,.7,3.39,1.78,3.43s1.73-.84,1.73-2.57V35.63H109c-1.1,0-1.69-.86-1.69-2.46s.59-2.46,1.69-2.46Z"/><path class="cls-2" d="M-10.07,41.2V22.15c0-1.87.64-2.9,1.78-2.9h2.9c3.3,0,5.2,3,5.2,8.1,0,3-.78,5.47-2.2,6.72l1.48,6.26C-.5,42.06-1.27,44-2.43,44c-.68,0-1.27-.73-1.5-1.7L-5.5,35.45H-6.68V41.2c0,1.52-.77,2.77-1.7,2.77S-10.07,42.72-10.07,41.2Zm3.39-11h1.2c1.29,0,1.91-.8,1.91-2.84s-.62-2.84-1.91-2.84h-1.2Z"/><path class="cls-2" d="M1.53,41.2V21.53c0-1.52.76-2.77,1.69-2.77S4.91,20,4.91,21.53v9.76L8.09,20.21c.25-.86.78-1.45,1.39-1.45.87,0,1.55,1.14,1.55,2.53a3.26,3.26,0,0,1-.13,1L8.17,31.74l2.67,8.7A4.38,4.38,0,0,1,11,41.51C11,42.89,10.31,44,9.46,44c-.61,0-1.12-.55-1.37-1.38L4.91,32.16v9c0,1.52-.76,2.77-1.69,2.77S1.53,42.72,1.53,41.2Z"/><path class="cls-2" d="M14.56,43.48c-1.14,0-1.78-1-1.78-2.91V22.15c0-1.87.64-2.9,1.78-2.9h6c.81,0,1.48,1.28,1.48,2.63s-.67,2.63-1.48,2.63H16.17V28.7h3.34c.85,0,1.53,1.21,1.53,2.59S20.36,34,19.51,34H16.17v4.26h4.44c.81,0,1.48,1.28,1.48,2.63s-.67,2.63-1.48,2.63Z"/><path class="cls-2" d="M23.43,41.2V21.56c0-1.52.76-2.8,1.71-2.8.68,0,1.25.66,1.53,1.56l3.4,11.39h0V21.53c0-1.52.77-2.77,1.7-2.77S33.5,20,33.5,21.53V41.2c0,1.52-.76,2.77-1.69,2.77-.66,0-1.23-.59-1.5-1.53l-3.45-11.6h-.05V41.2c0,1.52-.76,2.77-1.69,2.77S23.43,42.72,23.43,41.2Z"/><path class="cls-2" d="M40.46,41.2V22.15c0-1.87.64-2.9,1.78-2.9H45.1c3.34,0,5.22,3,5.22,8.27S48.44,35.8,45.1,35.8H43.85v5.4c0,1.52-.76,2.77-1.69,2.77S40.46,42.72,40.46,41.2Zm3.39-10.67h1.06c1.31,0,2-1.21,2-3s-.72-3-2-3H43.85Z"/><path class="cls-2" d="M51.55,35.28V27.45c0-4.78,2-8.69,5.16-8.69s5.06,3.53,5.06,8.69v7.83C61.77,40.44,60,44,56.71,44S51.55,40.05,51.55,35.28Zm6.9.52V26.93c0-1.73-.74-2.94-1.74-2.91s-1.77,1.42-1.77,2.91V35.8c0,1.48.69,2.87,1.77,2.9S58.45,37.53,58.45,35.8Z"/><path class="cls-2" d="M63.68,41.2V22.15c0-1.87.63-2.9,1.77-2.9h2.9c3.3,0,5.21,3,5.21,8.1,0,3-.79,5.47-2.2,6.72l1.48,6.26c.4,1.73-.36,3.64-1.53,3.64-.67,0-1.26-.73-1.5-1.7l-1.56-6.82H67.06V41.2c0,1.52-.76,2.77-1.69,2.77S63.68,42.72,63.68,41.2Zm3.38-11h1.21c1.29,0,1.9-.8,1.9-2.84s-.61-2.84-1.9-2.84H67.06Z"/><path class="cls-2" d="M79.86,41.2V22.15c0-1.87.64-2.9,1.78-2.9H84.5c3.34,0,5.22,3,5.22,8.27S87.84,35.8,84.5,35.8H83.25v5.4c0,1.52-.76,2.77-1.69,2.77S79.86,42.72,79.86,41.2Zm3.39-10.67h1.06c1.31,0,2-1.21,2-3s-.72-3-2-3H83.25Z"/><path class="cls-2" d="M90,40.75,93,21.84c.28-1.8,1.27-3.08,2.44-3.08s2.15,1.28,2.43,3.08l2.92,18.91c.3,1.87-.55,3.22-1.52,3.22-.75,0-1.36-.83-1.53-2l-.4-2.73H93.49L93.09,42c-.17,1.15-.78,2-1.52,2C90.55,44,89.77,42.55,90,40.75ZM94.25,34h2.29l-1.06-7.31h-.17Z"/><path class="cls-2" d="M110.17,29.63c1.1,0,1.69,1,1.69,2.77v3.29c0,4.81-1.78,8.28-5.06,8.28s-5.16-3.92-5.16-9.28V28c0-5.37,1.94-9.28,5.16-9.28,2.94,0,5,3,5.06,7.48,0,1.56-.83,2.42-1.59,2.42s-1.59-1.21-1.73-2.77A1.9,1.9,0,0,0,106.8,24c-1.08,0-1.78,1.42-1.78,3.43v7.83c0,2,.7,3.39,1.78,3.42s1.74-.83,1.74-2.56V34.55h-.36c-1.1,0-1.7-.87-1.7-2.46s.6-2.46,1.7-2.46Z"/></svg>