<svg id="Capa_1" data-name="Capa 1" xmlns="http://www.w3.org/2000/svg" viewBox="0 0 106.47 62.55"><defs><style>.cls-1{fill:#cc5091;stroke:#cc5091;stroke-width:0.75px;}.cls-1,.cls-2{stroke-miterlimit:10;}.cls-2{fill:#ef9cbd;stroke:#fff;stroke-width:0.5px;}</style></defs><path class="cls-1" d="M-4.68,35.77V29.12c0-5.37,1.95-9.28,5.16-9.28s5.06,3.53,5.06,8.35c0,1.1-.57,2.25-1.65,2.25s-1.67-1.21-1.67-2.77c0-1.74-.74-2.6-1.74-2.57s-1.77,1.42-1.77,3.43v7.83c0,2,.7,3.39,1.77,3.43S2.22,39,2.22,37.22c0-1.21.59-2.77,1.67-2.77s1.65,1.15,1.65,2.32c0,4.82-1.78,8.28-5.06,8.28S-4.68,41.14-4.68,35.77Z"/><path class="cls-1" d="M7.43,42.28V22.61c0-1.52.76-2.77,1.69-2.77s1.69,1.25,1.69,2.77l0,7.17h2.65l0-7.17c0-1.52.76-2.77,1.69-2.77s1.69,1.25,1.69,2.77V42.28c0,1.52-.76,2.77-1.69,2.77s-1.69-1.25-1.69-2.77l0-7.24H10.83l0,7.24c0,1.52-.76,2.77-1.69,2.77S7.43,43.8,7.43,42.28Z"/><path class="cls-1" d="M19.21,42.28V22.61c0-1.52.76-2.77,1.7-2.77s1.69,1.25,1.69,2.77V42.28c0,1.52-.76,2.77-1.69,2.77S19.21,43.8,19.21,42.28Z"/><path class="cls-1" d="M26.75,44.56c-1.15,0-1.78-1-1.78-2.9v-19c0-1.52.76-2.77,1.69-2.77s1.69,1.25,1.69,2.77V39.3h4.53c.81,0,1.48,1.28,1.48,2.63s-.67,2.63-1.48,2.63Z"/><path class="cls-1" d="M37.49,44.56c-1.14,0-1.77-1-1.77-2.9V23.23c0-1.87.63-2.9,1.77-2.9h6.06c.8,0,1.48,1.28,1.48,2.63s-.68,2.63-1.48,2.63H39.1v4.19h3.35c.84,0,1.52,1.21,1.52,2.6S43.29,35,42.45,35H39.1V39.3h4.45c.8,0,1.48,1.28,1.48,2.63s-.68,2.63-1.48,2.63Z"/><path class="cls-2" d="M-5.47,34.69V28c0-5.37,1.94-9.28,5.16-9.28s5.06,3.53,5.06,8.34c0,1.11-.57,2.26-1.65,2.26s-1.67-1.22-1.67-2.77C1.43,24.85.68,24-.31,24s-1.78,1.42-1.78,3.43v7.83c0,2,.7,3.39,1.78,3.42s1.74-.83,1.74-2.56c0-1.21.59-2.77,1.67-2.77s1.65,1.14,1.65,2.32C4.75,40.5,3,44-.31,44S-5.47,40.05-5.47,34.69Z"/><path class="cls-2" d="M6.63,41.2V21.53c0-1.52.76-2.77,1.69-2.77S10,20,10,21.53l0,7.17h2.64l0-7.17c0-1.52.76-2.77,1.69-2.77s1.7,1.25,1.7,2.77V41.2c0,1.52-.76,2.77-1.7,2.77s-1.69-1.25-1.69-2.77l0-7.24H10l0,7.24C10,42.72,9.25,44,8.32,44S6.63,42.72,6.63,41.2Z"/><path class="cls-2" d="M18.42,41.2V21.53c0-1.52.76-2.77,1.69-2.77S21.8,20,21.8,21.53V41.2C21.8,42.72,21,44,20.11,44S18.42,42.72,18.42,41.2Z"/><path class="cls-2" d="M26,43.48c-1.14,0-1.78-1-1.78-2.91v-19c0-1.52.76-2.77,1.7-2.77s1.69,1.25,1.69,2.77V38.22h4.53c.8,0,1.48,1.28,1.48,2.63s-.68,2.63-1.48,2.63Z"/><path class="cls-2" d="M36.7,43.48c-1.14,0-1.78-1-1.78-2.91V22.15c0-1.87.64-2.9,1.78-2.9h6c.81,0,1.48,1.28,1.48,2.63s-.67,2.63-1.48,2.63H38.31V28.7h3.34c.85,0,1.52,1.21,1.52,2.59S42.5,34,41.65,34H38.31v4.26h4.44c.81,0,1.48,1.28,1.48,2.63s-.67,2.63-1.48,2.63Z"/></svg>