<svg id="Capa_1" data-name="Capa 1" xmlns="http://www.w3.org/2000/svg" viewBox="0 0 106.47 62.55"><defs><style>.cls-1{fill:#cc5091;stroke:#cc5091;stroke-width:0.75px;}.cls-1,.cls-2{stroke-miterlimit:10;}.cls-2{fill:#ef9cbd;stroke:#fff;stroke-width:0.5px;}</style></defs><path class="cls-1" d="M-1,36.36V28.53c0-4.78,2-8.69,5.16-8.69S9.2,23.37,9.2,28.53v7.83c0,5.16-1.78,8.69-5.06,8.69S-1,41.14-1,36.36Zm6.9.52V28c0-1.73-.74-2.94-1.74-2.91S2.36,26.52,2.36,28v8.87c0,1.49.7,2.87,1.78,2.91S5.88,38.61,5.88,36.88Z"/><path class="cls-1" d="M10.64,39c-.21-1.76.74-2.94,1.63-2.94.7,0,1.31.87,1.54,1.9.28,1.22.85,1.81,1.67,1.81,1,0,1.61-.77,1.61-2.22a2.2,2.2,0,0,0-1.5-2.29l-1-.45c-2.58-1.1-3.87-3.63-3.87-7.44,0-4.47,1.93-7.55,4.78-7.55,2.39,0,3.88,2.22,4.45,5.54.31,1.87-.62,3-1.53,3-.67,0-1.29-1-1.5-1.94s-.7-1.32-1.4-1.32c-.86,0-1.41.7-1.41,1.87a2.25,2.25,0,0,0,1.48,2.36l1,.45c2.75,1.28,4,3.6,4,7.48,0,4.64-2,7.79-5,7.79C13,45.05,11.06,42.52,10.64,39Z"/><path class="cls-1" d="M26.83,42.28v-19c0-1.87.63-2.9,1.77-2.9h2.86c3.34,0,5.23,3,5.23,8.27s-1.89,8.28-5.23,8.28H30.21v5.4c0,1.52-.76,2.77-1.69,2.77S26.83,43.8,26.83,42.28Zm3.38-10.67h1.06c1.31,0,2-1.21,2-3s-.72-3-2-3H30.21Z"/><path class="cls-1" d="M37.91,36.36V28.53c0-4.78,2-8.69,5.17-8.69s5.06,3.53,5.06,8.69v7.83c0,5.16-1.78,8.69-5.06,8.69S37.91,41.14,37.91,36.36Zm6.9.52V28c0-1.73-.74-2.94-1.73-2.91S41.3,26.52,41.3,28v8.87c0,1.49.7,2.87,1.78,2.91S44.81,38.61,44.81,36.88Z"/><path class="cls-1" d="M50,42.28v-19c0-1.87.64-2.9,1.78-2.9h2.9c3.3,0,5.2,3,5.2,8.1,0,3-.78,5.47-2.2,6.72l1.48,6.26c.4,1.73-.36,3.64-1.52,3.64-.68,0-1.27-.73-1.5-1.7l-1.57-6.82H53.43v5.75c0,1.52-.77,2.77-1.7,2.77S50,43.8,50,42.28Zm3.39-11h1.2c1.29,0,1.91-.8,1.91-2.84s-.62-2.84-1.91-2.84h-1.2Z"/><path class="cls-1" d="M65.76,39c-.21-1.76.74-2.94,1.63-2.94.7,0,1.31.87,1.55,1.9.27,1.22.84,1.81,1.67,1.81,1,0,1.61-.77,1.61-2.22a2.19,2.19,0,0,0-1.51-2.29l-1-.45c-2.58-1.1-3.88-3.63-3.88-7.44,0-4.47,1.93-7.55,4.79-7.55,2.39,0,3.87,2.22,4.44,5.54.32,1.87-.61,3-1.52,3-.68,0-1.29-1-1.51-1.94s-.69-1.32-1.39-1.32c-.87,0-1.42.7-1.42,1.87a2.26,2.26,0,0,0,1.48,2.36l1,.45c2.76,1.28,4,3.6,4,7.48,0,4.64-2,7.79-5,7.79C68.09,45.05,66.19,42.52,65.76,39Z"/><path class="cls-1" d="M78.73,42.28l0-16.93H76.64c-.85,0-1.53-1.11-1.53-2.53s.68-2.49,1.53-2.49h7.57c.85,0,1.53,1.1,1.53,2.52s-.68,2.5-1.53,2.5H82.14l0,16.93c0,1.52-.76,2.77-1.69,2.77S78.73,43.8,78.73,42.28Z"/><path class="cls-1" d="M84.87,41.83l2.92-18.91c.28-1.8,1.27-3.08,2.43-3.08s2.16,1.28,2.44,3.08l2.92,18.91c.29,1.87-.55,3.22-1.53,3.22-.74,0-1.35-.83-1.52-2l-.4-2.73H88.32l-.4,2.73c-.17,1.15-.79,2-1.53,2C85.38,45.05,84.6,43.63,84.87,41.83Zm4.21-6.75h2.29l-1.06-7.31h-.17Z"/><path class="cls-1" d="M97.25,42.28v-19c0-1.87.63-2.9,1.78-2.9h2.9c3.3,0,5.2,3,5.2,8.1,0,3-.78,5.47-2.2,6.72l1.48,6.26c.4,1.73-.36,3.64-1.52,3.64-.68,0-1.27-.73-1.5-1.7l-1.57-6.82h-1.19v5.75c0,1.52-.76,2.77-1.69,2.77S97.25,43.8,97.25,42.28Zm3.38-11h1.21c1.29,0,1.91-.8,1.91-2.84s-.62-2.84-1.91-2.84h-1.21Z"/><path class="cls-2" d="M-1.82,35.28V27.45c0-4.78,2-8.69,5.17-8.69S8.4,22.29,8.4,27.45v7.83C8.4,40.44,6.63,44,3.35,44S-1.82,40.05-1.82,35.28Zm6.9.52V26.93C5.08,25.2,4.34,24,3.35,24s-1.78,1.42-1.78,2.91V35.8c0,1.48.7,2.87,1.78,2.9S5.08,37.53,5.08,35.8Z"/><path class="cls-2" d="M9.84,37.94c-.21-1.76.74-2.94,1.63-2.94.7,0,1.31.87,1.55,1.9.27,1.22.84,1.8,1.67,1.8,1,0,1.61-.76,1.61-2.21a2.2,2.2,0,0,0-1.5-2.29l-1-.45c-2.58-1.11-3.87-3.63-3.87-7.44,0-4.47,1.92-7.55,4.78-7.55,2.39,0,3.87,2.22,4.44,5.54.32,1.87-.61,3-1.52,3-.68,0-1.29-1-1.5-1.94S15.39,24,14.69,24c-.87,0-1.42.7-1.42,1.87a2.26,2.26,0,0,0,1.48,2.36l1,.45c2.75,1.28,3.95,3.6,3.95,7.48,0,4.64-2,7.79-5,7.79C12.17,44,10.27,41.44,9.84,37.94Z"/><path class="cls-2" d="M26,41.2V22.15c0-1.87.64-2.9,1.78-2.9h2.86c3.34,0,5.22,3,5.22,8.27S34,35.8,30.67,35.8H29.42v5.4c0,1.52-.76,2.77-1.7,2.77S26,42.72,26,41.2Zm3.39-10.67h1c1.32,0,2-1.21,2-3s-.72-3-2-3h-1Z"/><path class="cls-2" d="M37.12,35.28V27.45c0-4.78,2-8.69,5.16-8.69s5.06,3.53,5.06,8.69v7.83c0,5.16-1.78,8.69-5.06,8.69S37.12,40.05,37.12,35.28Zm6.9.52V26.93C44,25.2,43.28,24,42.28,24s-1.77,1.42-1.77,2.91V35.8c0,1.48.69,2.87,1.77,2.9S44,37.53,44,35.8Z"/><path class="cls-2" d="M49.25,41.2V22.15c0-1.87.63-2.9,1.77-2.9h2.9c3.3,0,5.21,3,5.21,8.1,0,3-.79,5.47-2.2,6.72l1.48,6.26c.4,1.73-.36,3.64-1.53,3.64-.67,0-1.27-.73-1.5-1.7l-1.56-6.82H52.63V41.2c0,1.52-.76,2.77-1.69,2.77S49.25,42.72,49.25,41.2Zm3.38-11h1.21c1.29,0,1.9-.8,1.9-2.84s-.61-2.84-1.9-2.84H52.63Z"/><path class="cls-2" d="M65,37.94c-.21-1.76.74-2.94,1.63-2.94.7,0,1.31.87,1.54,1.9.28,1.22.85,1.8,1.67,1.8,1,0,1.61-.76,1.61-2.21a2.2,2.2,0,0,0-1.5-2.29l-1-.45C66.3,32.64,65,30.12,65,26.31c0-4.47,1.93-7.55,4.78-7.55,2.39,0,3.87,2.22,4.45,5.54.31,1.87-.62,3-1.53,3-.68,0-1.29-1-1.5-1.94S70.51,24,69.81,24c-.86,0-1.41.7-1.41,1.87a2.25,2.25,0,0,0,1.48,2.36l1,.45c2.75,1.28,4,3.6,4,7.48,0,4.64-2,7.79-5,7.79C67.3,44,65.39,41.44,65,37.94Z"/><path class="cls-2" d="M77.94,41.2l0-16.93H75.84c-.84,0-1.52-1.11-1.52-2.53s.68-2.49,1.52-2.49h7.58c.85,0,1.52,1.1,1.52,2.52s-.67,2.5-1.52,2.5H81.34l0,16.93c0,1.52-.76,2.77-1.69,2.77S77.94,42.72,77.94,41.2Z"/><path class="cls-2" d="M84.08,40.75,87,21.84c.27-1.8,1.27-3.08,2.43-3.08s2.16,1.28,2.43,3.08l2.92,18.91c.3,1.87-.55,3.22-1.52,3.22-.74,0-1.36-.83-1.52-2l-.41-2.73h-3.8L87.12,42c-.17,1.15-.78,2-1.52,2C84.58,44,83.8,42.55,84.08,40.75ZM88.29,34h2.28l-1.06-7.31h-.17Z"/><path class="cls-2" d="M96.45,41.2V22.15c0-1.87.64-2.9,1.78-2.9h2.9c3.3,0,5.21,3,5.21,8.1,0,3-.79,5.47-2.2,6.72l1.48,6.26c.4,1.73-.36,3.64-1.53,3.64-.67,0-1.27-.73-1.5-1.7L101,35.45H99.84V41.2c0,1.52-.76,2.77-1.69,2.77S96.45,42.72,96.45,41.2Zm3.39-11h1.21c1.29,0,1.9-.8,1.9-2.84s-.61-2.84-1.9-2.84H99.84Z"/></svg>