<svg id="Capa_1" data-name="Capa 1" xmlns="http://www.w3.org/2000/svg" viewBox="0 0 106.47 62.55"><defs><style>.cls-1{fill:#cc5091;stroke:#cc5091;stroke-width:0.75px;}.cls-1,.cls-2{stroke-miterlimit:10;}.cls-2{fill:#ef9cbd;stroke:#fff;stroke-width:0.5px;}</style></defs><path class="cls-1" d="M67.17,44.56c-1.14,0-1.78-1-1.78-2.9V23.23c0-1.87.64-2.9,1.78-2.9h6c.8,0,1.48,1.28,1.48,2.63s-.68,2.63-1.48,2.63H68.78v4.19h3.34c.85,0,1.52,1.21,1.52,2.6S73,35,72.12,35H68.78V39.3h4.44c.8,0,1.48,1.28,1.48,2.63s-.68,2.63-1.48,2.63Z"/><path class="cls-1" d="M76,42.28V22.65c0-1.53.77-2.81,1.72-2.81.68,0,1.25.66,1.52,1.56l3.41,11.39h0V22.61c0-1.52.76-2.77,1.69-2.77s1.7,1.25,1.7,2.77V42.28c0,1.52-.77,2.77-1.7,2.77-.65,0-1.22-.59-1.5-1.53L79.46,31.93h0V42.28c0,1.52-.76,2.77-1.69,2.77S76,43.8,76,42.28Z"/><path class="cls-1" d="M90.7,42,87.78,23.06c-.28-1.8.51-3.22,1.52-3.22.74,0,1.36.83,1.53,2l2.22,15.3h.17l2.22-15.3c.17-1.15.78-2,1.52-2,1,0,1.82,1.35,1.53,3.22L95.57,42c-.28,1.8-1.27,3.08-2.44,3.08S91,43.77,90.7,42Z"/><path class="cls-1" d="M100.16,42.28V22.61c0-1.52.76-2.77,1.69-2.77s1.69,1.25,1.69,2.77V42.28c0,1.52-.76,2.77-1.69,2.77S100.16,43.8,100.16,42.28Z"/><path class="cls-1" d="M105.45,36.36V28.53c0-4.78,1.94-8.69,5.16-8.69s5.06,3.53,5.06,8.69v7.83c0,5.16-1.78,8.69-5.06,8.69S105.45,41.14,105.45,36.36Zm6.9.52V28c0-1.73-.75-2.94-1.74-2.91s-1.78,1.42-1.78,2.91v8.87c0,1.49.7,2.87,1.78,2.91S112.35,38.61,112.35,36.88Z"/><path class="cls-2" d="M66.37,43.48c-1.14,0-1.77-1-1.77-2.91V22.15c0-1.87.63-2.9,1.77-2.9h6c.81,0,1.49,1.28,1.49,2.63s-.68,2.63-1.49,2.63H68V28.7h3.34c.85,0,1.53,1.21,1.53,2.59S72.17,34,71.32,34H68v4.26h4.44c.81,0,1.49,1.28,1.49,2.63s-.68,2.63-1.49,2.63Z"/><path class="cls-2" d="M75.24,41.2V21.56c0-1.52.76-2.8,1.71-2.8.68,0,1.25.66,1.53,1.56l3.4,11.39h.05V21.53c0-1.52.76-2.77,1.69-2.77s1.69,1.25,1.69,2.77V41.2c0,1.52-.76,2.77-1.69,2.77-.66,0-1.23-.59-1.5-1.53l-3.45-11.6h0V41.2c0,1.52-.76,2.77-1.69,2.77S75.24,42.72,75.24,41.2Z"/><path class="cls-2" d="M89.9,40.89,87,22c-.27-1.8.51-3.22,1.53-3.22.74,0,1.35.83,1.52,2L92.25,36h.17l2.22-15.31c.17-1.14.79-2,1.53-2,1,0,1.82,1.35,1.52,3.22L94.77,40.89C94.5,42.69,93.5,44,92.34,44S90.18,42.69,89.9,40.89Z"/><path class="cls-2" d="M99.36,41.2V21.53c0-1.52.76-2.77,1.7-2.77s1.69,1.25,1.69,2.77V41.2c0,1.52-.76,2.77-1.69,2.77S99.36,42.72,99.36,41.2Z"/><path class="cls-2" d="M104.65,35.28V27.45c0-4.78,1.95-8.69,5.17-8.69s5.05,3.53,5.05,8.69v7.83c0,5.16-1.78,8.69-5.05,8.69S104.65,40.05,104.65,35.28Zm6.9.52V26.93c0-1.73-.74-2.94-1.73-2.91S108,25.44,108,26.93V35.8c0,1.48.7,2.87,1.78,2.9S111.55,37.53,111.55,35.8Z"/></svg>