<svg id="Capa_1" data-name="Capa 1" xmlns="http://www.w3.org/2000/svg" viewBox="0 0 1280 1024"><path d="M666.39,441.74c6.85-3.49,14.17-4.21,21.73-3.48a25.21,25.21,0,0,1,19.22,11.17c1.58,2.28,3.22,4.52,4.71,6.86a14.79,14.79,0,0,0,14,7.29c7.12-.29,13.5-6.72,13.59-13.83.07-5.36-2-10-4.79-14.39-5.78-8.91-14-14.75-23.94-18.2-18.07-6.3-36.26-5.83-54.19.29-18.51,6.31-31,19.06-37.11,37.65a84.71,84.71,0,0,0-1.78,47.48c5.62,22.93,19.52,38.6,42.47,45.32,18.46,5.4,36.89,4.34,55-2a91,91,0,0,0,20-9.7c5.16-3.38,8.1-8.09,8.18-14.28.12-10.15.19-20.31,0-30.47-.16-8.25-4.6-13.23-12.58-14.65a33.3,33.3,0,0,0-5.64-.49c-10.81,0-21.63-.08-32.44,0-8.55.07-13.94,6.13-13.06,14.47.53,5.06,4.33,8.58,10.55,9.53a50.34,50.34,0,0,0,7.05.52c5.22.07,10.44,0,15.86,0a1.38,1.38,0,0,1,1.37,1.37c0,5,0,9.86,0,14.67a2,2,0,0,1-1,1.39c-10.08,5.21-20.7,8.13-32.16,7.63-14.63-.63-26-8.5-30.8-22.31a64.47,64.47,0,0,1-.14-43.06A32,32,0,0,1,666.39,441.74Z"/><path d="M559.76,524.19c-5.81,3-12.11,3.22-18.49,2.57-8-.81-13.75-4.89-17.26-12.1-1-2.17-2-4.42-3-6.58a43.3,43.3,0,0,0-3.28-5.84c-3.24-4.56-7.87-6.1-13.23-5.22s-9.14,4.19-10.92,9.44a17.94,17.94,0,0,0,0,10.14c3,12.33,10.42,21.42,21.36,27.58,9.78,5.51,20.57,7,31.62,7a76.81,76.81,0,0,0,19.63-2.27c9-2.36,17.07-6.32,23.48-13.14,9.06-9.65,12-21.27,10.45-34.18-1.39-11.65-7.48-20.23-17.65-25.82a70.72,70.72,0,0,0-13.08-5.73c-9.74-3-19.63-5.51-29.47-8.21A32.59,32.59,0,0,1,529,456.94c-5.66-4.16-6-10.88-.55-15.3a24.23,24.23,0,0,1,6.9-3.81c4.57-1.67,9.4-1.44,14.19-1.11,6.73.46,11.41,4,14.78,9.62.82,1.36,1.54,2.78,2.36,4.15,1.21,2,2.4,4.06,3.71,6,4.52,6.71,14,5.92,18.32,2.53,5.34-4.22,7-9.75,5.77-16.24-1.85-9.68-7.79-16.51-15.8-21.69-7.64-5-16.18-7.3-25.21-8-10.7-.77-21.28-.19-31.46,3.43-14.57,5.18-24.48,14.63-26.35,30.63-1.37,11.81,1.85,22.19,11,30.31,5.75,5.08,12.54,8.21,19.74,10.39,8.29,2.52,16.73,4.54,25.08,6.83,4.49,1.24,8.92,2.59,12.82,5.35a13,13,0,0,1,2,19.3A26.39,26.39,0,0,1,559.76,524.19Z"/><path d="M438.52,523.08c-6.38,3.94-13.44,4.4-20.69,3.67C410,526,404.29,522,400.76,514.94c-1.06-2.11-1.91-4.31-3-6.42a42.88,42.88,0,0,0-3.4-6.17,13.76,13.76,0,0,0-22.39.36c-3,4.28-3,9-1.89,13.76,3,12.41,10.41,21.55,21.42,27.73,9.79,5.51,20.58,6.94,31.63,7a76.81,76.81,0,0,0,19.63-2.28c9-2.37,17.06-6.34,23.47-13.17,9-9.6,11.92-21.17,10.43-34-1.38-11.87-7.61-20.53-18-26.14a70.2,70.2,0,0,0-12.61-5.52c-9.8-3-19.75-5.52-29.64-8.24a36.6,36.6,0,0,1-8.53-3.36c-9.14-5.24-9-13.72.16-18.85a29.1,29.1,0,0,1,4.07-1.85c4.45-1.65,9.17-1.38,13.85-1.08,6.63.43,11.35,3.87,14.74,9.38.87,1.4,1.62,2.88,2.47,4.29,1.2,2,2.39,4.07,3.69,6,4.54,6.84,14.2,6.07,18.58,2.5,5.21-4.25,6.81-9.75,5.57-16.16-1.87-9.68-7.81-16.49-15.83-21.67-7.59-4.91-16.07-7.25-25-7.91-10.69-.78-21.27-.22-31.46,3.38-14.66,5.17-24.62,14.65-26.48,30.72-1.37,11.81,1.87,22.18,11.07,30.29,5.75,5.07,12.55,8.2,19.75,10.38,8.23,2.5,16.61,4.52,24.91,6.79,4.32,1.18,8.65,2.36,12.39,5,3.35,2.36,5.53,5.36,5.83,9.62C446.63,515.64,443.58,520,438.52,523.08Z"/><path d="M797.06,431.16a30,30,0,0,0-.26-3.89c-1.29-9.8-11-16.47-20.42-13.63a13.18,13.18,0,0,0-9.08,9.09,28.57,28.57,0,0,0-1.3,8.51q-.13,49.06,0,98.13a42.72,42.72,0,0,0,.36,6c.74,5.18,2.93,9.47,7.95,11.77A23.12,23.12,0,0,0,784.1,549q31.81,0,63.63,0a28,28,0,0,0,4.75-.41,12.49,12.49,0,0,0,10.67-11.36c.48-6.45-2.9-11.79-8.94-13.62a24.48,24.48,0,0,0-7-1c-16-.09-31.9,0-47.86,0h-.93a1.35,1.35,0,0,1-1.35-1.36v-1Q797.11,475.62,797.06,431.16Z"/><path d="M158.13,572.07,60.73,441.56c3.32.49,6.15.9,9,1.33,11.6,1.76,23.2,3.57,34.81,5.28,4.76.71,4.78.61,6.55,5L158,570.65c.17.41.32.84.48,1.26ZM117.92,449.41H229c-18.46,46.29-36.84,92.38-55.42,139Zm-.18-7.86c1.68-4.58,3.31-9,4.92-13.41,1.26-3.43,2.52-6.85,3.72-10.3a1.81,1.81,0,0,1,2-1.45q45,0,90,0c.85,0,1.52,0,1.91,1.06,2.82,7.88,5.72,15.73,8.6,23.59a2.51,2.51,0,0,1,0,.49Zm71,130.47-.34-.16,8.43-21.14q20-50.08,40-100.18a2.55,2.55,0,0,1,2.22-1.86q23.1-3.46,46.19-7a4.77,4.77,0,0,1,.73.09Zm78.64-166c6.67,8.93,13.28,17.92,19.89,26.89a5,5,0,0,1,.31.72c-2.47.4-4.86.81-7.26,1.18l-32.28,4.94c-3.2.49-6.39,1-9.6,1.41a1.86,1.86,0,0,1-1.51-.9c-3.05-8.22-6-16.46-9.1-24.95L245,410.81c6.84-1.8,13.68-3.61,20.54-5.33A2.25,2.25,0,0,1,267.42,406Zm-175.8-6.66q16.42-7.29,32.87-14.54a4.41,4.41,0,0,1,1.71-.23q47.24,0,94.48,0a9.32,9.32,0,0,1,3.48,1q15.33,6.67,30.64,13.42c.47.2.93.43,1.87.87-10.41,2.68-20.31,5.31-30.26,7.74a37.11,37.11,0,0,1-8.71,1.09c-28.13.08-56.25,0-84.37.1a59.56,59.56,0,0,1-16.75-2.13c-8.5-2.41-17.1-4.46-25.87-6.72A6.18,6.18,0,0,1,91.62,399.34ZM59.84,432.53q9.76-13.14,19.53-26.28a1.77,1.77,0,0,1,2.2-.86c12.12,3.23,24.26,6.39,36.4,9.58.33.09.64.22,1.19.41-3.07,8.44-6,16.69-9.12,24.91a1.81,1.81,0,0,1-1.53.84c-16.36-2.45-32.71-5-49.22-7.51A8.48,8.48,0,0,1,59.84,432.53Z"/><path d="M1036.57,525.5c1.41,5.65,2.52,11.41,5.27,16.66,5,9.59,18.82,12.25,27.16,5.28,3.86-3.23,5.8-7.52,7.09-12.19q8.37-30.24,16.7-60.49c1.45-5.28,2.89-10.56,4.41-16.12.25.81.43,1.31.56,1.82,3.57,13.25,7.08,26.53,10.72,39.77,3.53,12.84,7,25.71,10.87,38.44,2.33,7.66,7.81,12.05,16,12.49,5.53.29,10.51-.93,14.43-5.26a24.75,24.75,0,0,0,5.29-10.86q5.36-21,10.57-42,7.1-28.67,14.08-57.35c1-3.94,1.79-8,.78-12.06A14.46,14.46,0,0,0,1168,412.94c-7.71-.68-12.9,2.57-15.63,9.83a27.65,27.65,0,0,0-.86,3q-6,26.17-11.9,52.38c-1.45,6.42-2.89,12.85-4.42,19.65-.28-.88-.45-1.37-.59-1.88-3-10.91-5.89-21.84-8.89-32.75-3.34-12.16-6.67-24.32-10.16-36.44-2.53-8.77-9.33-14.42-19.64-13.86-7.83.43-13.23,4.26-16.43,11.22a55.91,55.91,0,0,0-3,8.69q-8.57,31.56-17,63.16c-.12.44-.29.87-.58,1.71-4.54-20.26-9-40.05-13.42-59.82-1.36-6-2.45-12.16-5.08-17.85a11.54,11.54,0,0,0-8.24-6.57,25.39,25.39,0,0,0-5-.46,13.88,13.88,0,0,0-13.79,12.82,27,27,0,0,0,.57,7.72c2.35,10.28,4.9,20.52,7.42,30.76Q1029,494.89,1036.57,525.5Z"/><path d="M914.32,547.6a78.77,78.77,0,0,0,40.92,1.94c20.08-4.12,34.42-15.63,42.57-34.55,4.55-10.58,6.1-21.74,6.12-33.17a89,89,0,0,0-3-24c-5.77-20.64-18.42-34.91-39.06-41.52A79.45,79.45,0,0,0,924.06,414c-22.21,3.72-38,15.79-46.09,37-7.75,20.42-7.51,41.16-.08,61.63C884.25,530.08,896.56,541.8,914.32,547.6Zm-10-72.51a52.59,52.59,0,0,1,4.22-17.26c5.66-12.86,16.64-19.67,30.8-19.16,14.85.53,25.71,9.11,30.39,24a57.59,57.59,0,0,1,2.65,16.85c0,11.53-1.26,20.46-5.68,28.7-6.39,11.9-16.54,17.55-29.85,17.14-13.75-.42-23.09-7.65-28.48-20.08C904.2,495.64,903.55,485.44,904.33,475.09Z"/></svg>